PathFileType	4	(X/Y/Z)	TVC_39_BWA_04_walk_RCNL2025.trc
DataRate	CameraRate	NumFrames	NumMarkers	Units	OrigDataRate	OrigDataStartFrame	OrigNumFrames
100	100	8	27	mm	100	1	1269
Frame#	Time	R_Shoulder			L_Shoulder			C7			J_Notch			R_Elbow			L_Elbow			R_Wrist			L_Wrist			R_Asis			L_Asis			R_Psis			L_Psis			Sacral			Thoracic			Sternum			R_Thigh_Lateral			R_Knee_Lateral			R_Shank_Lateral			R_Ankle_Lateral			R_Heel			R_Toe			L_Thigh_Lateral			L_Knee_Lateral			L_Shank_Lateral			L_Ankle_Lateral			L_Heel			L_Toe		
		X1	Y1	Z1	X2	Y2	Z2	X3	Y3	Z3	X4	Y4	Z4	X5	Y5	Z5	X6	Y6	Z6	X7	Y7	Z7	X8	Y8	Z8	X9	Y9	Z9	X10	Y10	Z10	X11	Y11	Z11	X12	Y12	Z12	X13	Y13	Z13	X14	Y14	Z14	X15	Y15	Z15	X16	Y16	Z16	X17	Y17	Z17	X18	Y18	Z18	X19	Y19	Z19	X20	Y20	Z20	X21	Y21	Z21	X22	Y22	Z22	X23	Y23	Z23	X24	Y24	Z24	X25	Y25	Z25	X26	Y26	Z26	X27	Y27	Z27
1	0.00000000	-1524.969971	1461.167603	437.943054	-1497.209229	1471.891968	69.096954	-1551.977051	1529.501953	249.702774	-1396.419556	1412.868896	253.740463	-1502.540894	1139.780640	552.009033	-1545.089844	1159.645386	-51.862015	-1387.167358	913.808197	520.127182	-1463.798523	909.996460	-30.880707	-1436.911133	933.870483	381.385071	-1432.086060	924.969421	87.986519	-1634.164062	954.741638	288.640564	-1634.653931	946.095459	181.211212	-1634.408997	950.418549	234.925888	-1632.113281	1202.256470	232.052948	-1346.730713	1252.361694	260.427307	-1454.571411	735.508789	465.477966	-1395.302124	478.131958	394.930359	-1451.893433	296.504333	454.631226	-1464.908203	73.044342	358.084045	-1509.514526	59.914433	303.056641	-1320.769043	42.750179	370.901855	-1507.851440	666.763611	23.461710	-1527.511841	445.245728	108.700348	-1605.298096	322.504791	51.615345	-1707.621094	78.738365	142.737991	-1757.025024	71.542313	196.179306	-1570.967163	37.676208	141.926727
2	0.01000000	-1521.920288	1461.186157	440.104401	-1493.931519	1472.527344	71.335495	-1548.819336	1529.884521	251.972839	-1393.446777	1412.939087	255.936859	-1499.271729	1139.582886	553.529114	-1541.826538	1160.618774	-50.416103	-1383.476929	913.963135	520.659195	-1460.459900	910.976776	-29.825016	-1434.796021	933.793640	382.569000	-1430.092407	925.357971	89.157356	-1632.064331	955.308594	289.824005	-1632.567749	946.604004	182.369034	-1632.316040	950.956299	236.096519	-1629.574097	1202.831421	233.680954	-1344.053101	1252.333618	262.379517	-1452.748047	735.557556	466.151337	-1394.832275	477.979553	395.284515	-1451.545044	296.312500	454.899078	-1464.854126	72.968834	358.089294	-1509.053711	59.712830	303.050262	-1320.768799	42.733299	370.887329	-1505.255493	667.053162	24.235903	-1523.852417	445.286377	109.131844	-1602.422852	323.156647	51.907585	-1706.984131	80.239777	142.496368	-1756.479126	73.474678	195.866150	-1570.622681	37.710606	141.908386
3	0.02000000	-1518.900391	1461.219971	442.297424	-1490.704712	1473.228149	73.620651	-1545.683472	1530.289795	254.288239	-1390.498901	1413.034546	258.165009	-1496.058716	1139.415405	555.081238	-1538.626587	1161.667969	-48.941673	-1379.856689	914.147736	521.189987	-1457.162292	912.034210	-28.797812	-1432.702271	933.746826	383.717896	-1428.105225	925.800903	90.331284	-1629.990601	955.903870	290.976959	-1630.495239	947.141602	183.490829	-1630.242920	951.522736	237.233894	-1627.060791	1203.431152	235.317261	-1341.400391	1252.333496	264.349609	-1450.823730	735.712463	466.767120	-1394.522583	477.861145	395.622711	-1451.315796	296.142578	455.151978	-1464.809448	72.893890	358.100464	-1508.584839	59.493778	303.050232	-1320.771118	42.715832	370.877747	-1502.521240	667.372803	24.987070	-1519.921143	445.349548	109.520622	-1599.326660	323.868896	52.193264	-1706.245972	81.877884	142.267212	-1755.843018	75.599518	195.567276	-1570.250977	37.753185	141.880951
4	0.03000000	-1515.914307	1461.262207	444.520294	-1487.531616	1473.992310	75.952797	-1542.573120	1530.712158	256.648224	-1387.578369	1413.152100	260.422913	-1492.906738	1139.272461	556.665588	-1535.498535	1162.794678	-47.443050	-1376.310181	914.356201	521.726791	-1453.905762	913.172546	-27.794641	-1430.629517	933.727173	384.831482	-1426.125977	926.294067	91.506989	-1627.942871	956.524048	292.099548	-1628.436523	947.705200	184.577393	-1628.189697	952.114624	238.338470	-1624.574463	1204.049194	236.959549	-1338.773438	1252.358154	266.333771	-1448.864990	735.952393	467.342041	-1394.364380	477.774109	395.952209	-1451.211670	295.995026	455.388794	-1464.775757	72.818977	358.116516	-1508.122314	59.261238	303.053497	-1320.777832	42.697834	370.874451	-1499.644409	667.718079	25.711401	-1515.710205	445.433075	109.855232	-1596.002563	324.641846	52.464321	-1705.399902	83.659775	142.044174	-1755.105835	77.921471	195.279510	-1569.855347	37.800224	141.841125
5	0.04000000	-1512.965820	1461.305420	446.770905	-1484.413452	1474.815674	78.331909	-1539.491943	1531.144775	259.051514	-1384.687622	1413.287109	262.708405	-1489.819946	1139.147339	558.281860	-1532.449219	1163.999146	-45.925705	-1372.840271	914.581543	522.277054	-1450.690125	914.393982	-26.810518	-1428.577881	933.730469	385.909973	-1424.157715	926.831909	92.682602	-1625.920898	957.164429	293.192291	-1626.391968	948.290161	185.630188	-1626.156433	952.727295	239.411240	-1622.116211	1204.678833	238.605759	-1336.173218	1252.402832	268.328247	-1446.939575	736.253601	467.893005	-1394.344727	477.714752	396.279724	-1451.233032	295.868988	455.609528	-1464.754883	72.743744	358.136200	-1507.681885	59.020729	303.056915	-1320.790405	42.679375	370.878418	-1496.621582	668.083923	26.403801	-1511.211304	445.534821	110.122452	-1592.442139	325.476685	52.708744	-1704.438599	85.594269	141.814896	-1754.256226	80.446068	194.993103	-1569.437500	37.846775	141.785797
6	0.05000000	-1510.058105	1461.341553	449.046753	-1481.350220	1475.692505	80.757477	-1536.442871	1531.580688	261.496185	-1381.828369	1413.433716	265.019012	-1486.802246	1139.031860	559.929382	-1529.483276	1165.280029	-44.395950	-1369.449402	914.815521	522.848282	-1447.515015	915.698822	-25.840116	-1426.547363	933.751404	386.953827	-1422.204224	927.407471	93.855698	-1623.925049	957.818970	294.256165	-1624.362427	948.890503	186.651337	-1624.143738	953.354736	240.453751	-1619.686768	1205.312134	240.254074	-1333.600586	1252.461426	270.329010	-1445.110352	736.591431	468.436066	-1394.445435	477.678436	396.611298	-1451.374146	295.762329	455.815521	-1464.748535	72.668167	358.158142	-1507.278809	58.778519	303.057526	-1320.810181	42.660542	370.890228	-1493.450684	668.465210	27.058125	-1506.415039	445.653107	110.307579	-1588.634888	326.376404	52.910572	-1703.353394	87.692253	141.560867	-1753.281738	83.180939	194.691193	-1568.998413	37.887486	141.711914
7	0.06000000	-1507.193604	1461.361938	451.344879	-1478.340454	1476.615356	83.228485	-1533.428101	1532.011963	263.979675	-1379.002319	1413.585205	267.351929	-1483.857056	1138.917358	561.607483	-1526.603516	1166.634155	-42.860638	-1366.139160	915.048828	523.447906	-1444.379944	917.085358	-24.877967	-1424.538208	933.783508	387.963684	-1420.270508	928.012329	95.023453	-1621.956055	958.480591	295.292450	-1622.348999	949.498718	187.643448	-1622.152527	953.989655	241.467949	-1617.287231	1205.941162	241.902878	-1331.056152	1252.527222	272.331970	-1443.430786	736.942017	468.985199	-1394.643188	477.659515	396.952118	-1451.622559	295.671661	456.009399	-1464.758301	72.592468	358.180847	-1506.925903	58.541042	303.052979	-1320.838135	42.641441	370.910034	-1490.132080	668.856995	27.666925	-1501.311279	445.787231	110.394951	-1584.567627	327.345886	53.050362	-1702.133179	89.966675	141.257904	-1752.168457	86.137070	194.349884	-1568.538330	37.917728	141.616455
8	0.07000000	-1504.374390	1461.357666	453.662170	-1475.382202	1477.575439	85.743301	-1530.449585	1532.430420	266.498962	-1376.210693	1413.734131	269.704010	-1480.986694	1138.794067	563.314880	-1523.810669	1168.056519	-41.326809	-1362.910828	915.271301	524.083252	-1441.284302	918.549927	-23.918656	-1422.551025	933.819336	388.940308	-1418.362183	928.637146	96.182663	-1620.014404	959.141174	296.302765	-1620.353271	950.105957	188.609497	-1620.183838	954.623566	242.456131	-1614.918823	1206.557617	243.550751	-1328.541016	1252.592407	274.332855	-1441.940308	737.283508	469.551880	-1394.909790	477.651489	397.306702	-1451.959595	295.592682	456.195038	-1464.785034	72.517136	358.202728	-1506.632202	58.314560	303.041626	-1320.874878	42.622219	370.937439	-1486.667969	669.255066	28.221241	-1495.888062	445.937805	110.368652	-1580.224609	328.391998	53.106037	-1700.763428	92.432510	140.876999	-1750.899536	89.329880	193.938568	-1568.057007	37.934723	141.496460
